<mxfile host="app.diagrams.net" modified="2024-01-02T14:09:47.102Z" agent="Mozilla/5.0 (Macintosh; Intel Mac OS X 10_15_7) AppleWebKit/537.36 (KHTML, like Gecko) Chrome/120.0.0.0 Safari/537.36" etag="-crF4oAHPTw0HoRt8zwE" version="22.1.16" type="device">
  <diagram name="Page-1" id="LMqKPJqkbRB_No3KdYaw">
    <mxGraphModel dx="2299" dy="787" grid="1" gridSize="10" guides="1" tooltips="1" connect="1" arrows="1" fold="1" page="1" pageScale="1" pageWidth="827" pageHeight="1169" math="0" shadow="0">
      <root>
        <mxCell id="0" />
        <mxCell id="1" parent="0" />
        <mxCell id="N5ACcrJUkBG9dbKgUQWh-1" value="" style="fillColor=#dddddd;rounded=0;strokeColor=none;" vertex="1" parent="1">
          <mxGeometry x="-10" y="410" width="840" height="30" as="geometry" />
        </mxCell>
        <mxCell id="N5ACcrJUkBG9dbKgUQWh-2" value="Day 1: Wed" style="shape=mxgraph.infographic.ribbonSimple;notch1=0;notch2=10;notch=0;html=1;fillColor=#10739E;strokeColor=none;shadow=0;fontSize=17;fontColor=#FFFFFF;align=left;spacingLeft=10;fontStyle=1;whiteSpace=wrap;" vertex="1" parent="1">
          <mxGeometry x="30" y="400" width="120" height="50" as="geometry" />
        </mxCell>
        <mxCell id="N5ACcrJUkBG9dbKgUQWh-3" value="Day 2: Thu" style="shape=mxgraph.infographic.ribbonSimple;notch1=0;notch2=10;notch=0;html=1;fillColor=#F2931E;strokeColor=none;shadow=0;fontSize=17;fontColor=#FFFFFF;align=left;spacingLeft=10;fontStyle=1;whiteSpace=wrap;" vertex="1" parent="1">
          <mxGeometry x="190" y="400" width="120" height="50" as="geometry" />
        </mxCell>
        <mxCell id="N5ACcrJUkBG9dbKgUQWh-4" value="Day 3: Fri" style="shape=mxgraph.infographic.ribbonSimple;notch1=0;notch2=10;notch=0;html=1;fillColor=#AE4132;strokeColor=none;shadow=0;fontSize=17;fontColor=#FFFFFF;align=left;spacingLeft=10;fontStyle=1;whiteSpace=wrap;" vertex="1" parent="1">
          <mxGeometry x="350" y="400" width="120" height="50" as="geometry" />
        </mxCell>
        <mxCell id="N5ACcrJUkBG9dbKgUQWh-5" value="Day 4: Mon" style="shape=mxgraph.infographic.ribbonSimple;notch1=0;notch2=10;notch=0;html=1;fillColor=#23445D;strokeColor=none;shadow=0;fontSize=17;fontColor=#FFFFFF;align=left;spacingLeft=10;fontStyle=1;whiteSpace=wrap;" vertex="1" parent="1">
          <mxGeometry x="510" y="400" width="120" height="50" as="geometry" />
        </mxCell>
        <mxCell id="N5ACcrJUkBG9dbKgUQWh-6" value="Day 5: Tue" style="shape=mxgraph.infographic.ribbonSimple;notch1=0;notch2=10;notch=0;html=1;fillColor=#12AAB5;strokeColor=none;shadow=0;fontSize=17;fontColor=#FFFFFF;align=left;spacingLeft=10;fontStyle=1;whiteSpace=wrap;" vertex="1" parent="1">
          <mxGeometry x="670" y="400" width="120" height="50" as="geometry" />
        </mxCell>
        <mxCell id="N5ACcrJUkBG9dbKgUQWh-7" value="&lt;font style=&quot;font-size: 10px&quot;&gt;&lt;font style=&quot;font-size: 12px&quot; color=&quot;#10739E&quot;&gt;&lt;b&gt;Sprint Planning&lt;/b&gt;&lt;/font&gt;&lt;br&gt;&lt;/font&gt;" style="rounded=1;strokeColor=none;fillColor=#DDDDDD;align=center;arcSize=12;verticalAlign=top;whiteSpace=wrap;html=1;fontSize=12;" vertex="1" parent="1">
          <mxGeometry x="-10" y="360" width="200" height="30" as="geometry" />
        </mxCell>
        <mxCell id="N5ACcrJUkBG9dbKgUQWh-8" value="&lt;font style=&quot;&quot;&gt;&lt;b style=&quot;border-color: var(--border-color); color: rgb(16, 115, 158);&quot;&gt;Current Sprint Tickets Release Allocation&lt;/b&gt;&lt;br&gt;&lt;ol&gt;&lt;li style=&quot;text-align: left;&quot;&gt;&lt;font style=&quot;font-size: 11px;&quot;&gt;Keep an eye on Infrastructure and ETL dependencies if any&amp;nbsp;&lt;/font&gt;&lt;/li&gt;&lt;li&gt;&lt;font style=&quot;&quot;&gt;&lt;font size=&quot;1&quot;&gt;Follow up all the tickets including change requests if any are properly added to release&lt;/font&gt;&lt;/font&gt;&lt;/li&gt;&lt;/ol&gt;&lt;/font&gt;" style="rounded=1;strokeColor=none;fillColor=#DDDDDD;align=center;arcSize=12;verticalAlign=top;whiteSpace=wrap;html=1;fontSize=12;" vertex="1" parent="1">
          <mxGeometry x="33" y="460" width="760" height="70" as="geometry" />
        </mxCell>
        <mxCell id="N5ACcrJUkBG9dbKgUQWh-9" value="&lt;font color=&quot;#ae4132&quot;&gt;&lt;b&gt;Sprint Delivery&lt;/b&gt;&lt;/font&gt;" style="rounded=1;strokeColor=none;fillColor=#DDDDDD;align=center;arcSize=12;verticalAlign=top;whiteSpace=wrap;html=1;fontSize=12;" vertex="1" parent="1">
          <mxGeometry x="200" y="360" width="580" height="30" as="geometry" />
        </mxCell>
        <mxCell id="N5ACcrJUkBG9dbKgUQWh-12" value="" style="fillColor=#dddddd;rounded=0;strokeColor=none;" vertex="1" parent="1">
          <mxGeometry x="-13" y="650" width="840" height="30" as="geometry" />
        </mxCell>
        <mxCell id="N5ACcrJUkBG9dbKgUQWh-13" value="Day 6: Wed" style="shape=mxgraph.infographic.ribbonSimple;notch1=0;notch2=10;notch=0;html=1;fillColor=#10739E;strokeColor=none;shadow=0;fontSize=17;fontColor=#FFFFFF;align=left;spacingLeft=10;fontStyle=1;whiteSpace=wrap;" vertex="1" parent="1">
          <mxGeometry x="30" y="640" width="120" height="50" as="geometry" />
        </mxCell>
        <mxCell id="N5ACcrJUkBG9dbKgUQWh-14" value="Day 7: Thu" style="shape=mxgraph.infographic.ribbonSimple;notch1=0;notch2=10;notch=0;html=1;fillColor=#F2931E;strokeColor=none;shadow=0;fontSize=17;fontColor=#FFFFFF;align=left;spacingLeft=10;fontStyle=1;whiteSpace=wrap;" vertex="1" parent="1">
          <mxGeometry x="190" y="640" width="120" height="50" as="geometry" />
        </mxCell>
        <mxCell id="N5ACcrJUkBG9dbKgUQWh-15" value="Day 8: Fri" style="shape=mxgraph.infographic.ribbonSimple;notch1=0;notch2=10;notch=0;html=1;fillColor=#AE4132;strokeColor=none;shadow=0;fontSize=17;fontColor=#FFFFFF;align=left;spacingLeft=10;fontStyle=1;whiteSpace=wrap;" vertex="1" parent="1">
          <mxGeometry x="350" y="640" width="120" height="50" as="geometry" />
        </mxCell>
        <mxCell id="N5ACcrJUkBG9dbKgUQWh-16" value="Day 9: Mon" style="shape=mxgraph.infographic.ribbonSimple;notch1=0;notch2=10;notch=0;html=1;fillColor=#23445D;strokeColor=none;shadow=0;fontSize=17;fontColor=#FFFFFF;align=left;spacingLeft=10;fontStyle=1;whiteSpace=wrap;" vertex="1" parent="1">
          <mxGeometry x="510" y="640" width="120" height="50" as="geometry" />
        </mxCell>
        <mxCell id="N5ACcrJUkBG9dbKgUQWh-17" value="Day 10: Tue" style="shape=mxgraph.infographic.ribbonSimple;notch1=0;notch2=10;notch=0;html=1;fillColor=#12AAB5;strokeColor=none;shadow=0;fontSize=17;fontColor=#FFFFFF;align=left;spacingLeft=10;fontStyle=1;whiteSpace=wrap;" vertex="1" parent="1">
          <mxGeometry x="670" y="640" width="120" height="50" as="geometry" />
        </mxCell>
        <mxCell id="N5ACcrJUkBG9dbKgUQWh-18" value="&lt;font style=&quot;font-size: 10px&quot;&gt;&lt;font style=&quot;font-size: 12px&quot; color=&quot;#10739E&quot;&gt;&lt;b&gt;Backlog Refinement&lt;/b&gt;&lt;/font&gt;&lt;br&gt;&lt;br&gt;&lt;br&gt;&lt;/font&gt;" style="rounded=1;strokeColor=none;fillColor=#DDDDDD;align=center;arcSize=12;verticalAlign=top;whiteSpace=wrap;html=1;fontSize=12;" vertex="1" parent="1">
          <mxGeometry x="-20" y="560" width="170" height="30" as="geometry" />
        </mxCell>
        <mxCell id="N5ACcrJUkBG9dbKgUQWh-19" value="&lt;font style=&quot;font-size: 10px&quot;&gt;&lt;font style=&quot;font-size: 12px&quot; color=&quot;#F2931E&quot;&gt;&lt;b&gt;Release UAT&lt;/b&gt;&lt;/font&gt;&lt;br&gt;&lt;br&gt;&lt;div style=&quot;text-align: left;&quot;&gt;&lt;ol&gt;&lt;li&gt;&lt;span style=&quot;background-color: initial;&quot;&gt;Deploy Infrastructure in UAT.&lt;/span&gt;&lt;/li&gt;&lt;li&gt;&lt;span style=&quot;background-color: initial;&quot;&gt;Take QA Sign off for &quot;develop&quot; branch in QA env.&lt;/span&gt;&lt;/li&gt;&lt;li&gt;&lt;span style=&quot;background-color: initial;&quot;&gt;Create &quot;releases/&lt;/span&gt;&lt;i style=&quot;background-color: initial;&quot;&gt;&amp;lt;release#&amp;gt;&lt;/i&gt;&lt;span style=&quot;background-color: initial;&quot;&gt;&quot; branch from &quot;develop&quot;.&lt;/span&gt;&lt;/li&gt;&lt;li&gt;&lt;span style=&quot;background-color: initial;&quot;&gt;Push, follow-up on UAT Env deployment approvals and ensure GitHub actions successful.&lt;/span&gt;&lt;/li&gt;&lt;li&gt;&lt;span style=&quot;background-color: initial;&quot;&gt;(Re-)run pipelines to ensure ETL works.&lt;/span&gt;&lt;/li&gt;&lt;li&gt;&lt;span style=&quot;background-color: initial;&quot;&gt;Communicate UAT Release status to team.&lt;/span&gt;&lt;/li&gt;&lt;li&gt;&lt;span style=&quot;background-color: initial;&quot;&gt;Follow-up bug fixes merged in release/develop.&lt;/span&gt;&lt;/li&gt;&lt;/ol&gt;&lt;/div&gt;&lt;/font&gt;" style="rounded=1;strokeColor=none;fillColor=#DDDDDD;align=center;arcSize=12;verticalAlign=top;whiteSpace=wrap;html=1;fontSize=12;" vertex="1" parent="1">
          <mxGeometry x="180" y="720" width="300" height="190" as="geometry" />
        </mxCell>
        <mxCell id="N5ACcrJUkBG9dbKgUQWh-21" value="&lt;font style=&quot;font-size: 10px&quot;&gt;&lt;b style=&quot;border-color: var(--border-color); color: rgb(174, 65, 50); font-size: 12px;&quot;&gt;Release PROD&lt;/b&gt;&lt;br&gt;&lt;br&gt;&lt;div style=&quot;border-color: var(--border-color); text-align: left;&quot;&gt;&lt;ol&gt;&lt;li&gt;Deploy Infrastructure in PROD.&lt;/li&gt;&lt;li&gt;&lt;span style=&quot;border-color: var(--border-color); background-color: initial;&quot;&gt;Take UAT Sign off for&amp;nbsp;&quot;releases/&lt;i style=&quot;border-color: var(--border-color); background-color: initial;&quot;&gt;&amp;lt;release#&amp;gt;&lt;/i&gt;&lt;span style=&quot;border-color: var(--border-color); background-color: initial;&quot;&gt;&quot;&amp;nbsp;&lt;/span&gt;branch in UAT env.&lt;/span&gt;&lt;/li&gt;&lt;li&gt;&lt;span style=&quot;border-color: var(--border-color); background-color: initial;&quot;&gt;Merge &quot;releases/&lt;/span&gt;&lt;i style=&quot;border-color: var(--border-color); background-color: initial;&quot;&gt;&amp;lt;release#&amp;gt;&lt;/i&gt;&lt;span style=&quot;border-color: var(--border-color); background-color: initial;&quot;&gt;&quot; branch to &quot;main&quot;.&lt;/span&gt;&lt;/li&gt;&lt;li&gt;&lt;span style=&quot;border-color: var(--border-color); background-color: initial;&quot;&gt;Follow-up on PROD Env deployment approvals and ensure GitHub actions were successful.&lt;/span&gt;&lt;/li&gt;&lt;li&gt;&lt;span style=&quot;border-color: var(--border-color); background-color: initial;&quot;&gt;Communicate PROD Release status to MS Teams.&lt;/span&gt;&lt;/li&gt;&lt;/ol&gt;&lt;/div&gt;&lt;div style=&quot;border-color: var(--border-color); text-align: left;&quot;&gt;&lt;br&gt;&lt;/div&gt;&lt;/font&gt;" style="rounded=1;strokeColor=none;fillColor=#DDDDDD;align=center;arcSize=12;verticalAlign=top;whiteSpace=wrap;html=1;fontSize=12;" vertex="1" parent="1">
          <mxGeometry x="500" y="720" width="310" height="190" as="geometry" />
        </mxCell>
        <mxCell id="N5ACcrJUkBG9dbKgUQWh-22" value="&lt;font style=&quot;font-size: 10px&quot;&gt;&lt;font style=&quot;font-size: 12px&quot; color=&quot;#12AAB5&quot;&gt;&lt;b&gt;Sprint Review&lt;/b&gt;&lt;/font&gt;&lt;br&gt;&lt;/font&gt;" style="rounded=1;strokeColor=none;fillColor=#DDDDDD;align=center;arcSize=12;verticalAlign=top;whiteSpace=wrap;html=1;fontSize=12;" vertex="1" parent="1">
          <mxGeometry x="620" y="560" width="200" height="30" as="geometry" />
        </mxCell>
        <mxCell id="N5ACcrJUkBG9dbKgUQWh-27" value="&lt;font color=&quot;#ae4132&quot;&gt;&lt;b&gt;Sprint Delivery&lt;/b&gt;&lt;/font&gt;" style="rounded=1;strokeColor=none;fillColor=#DDDDDD;align=center;arcSize=12;verticalAlign=top;whiteSpace=wrap;html=1;fontSize=12;" vertex="1" parent="1">
          <mxGeometry x="-20" y="600" width="630" height="30" as="geometry" />
        </mxCell>
        <mxCell id="N5ACcrJUkBG9dbKgUQWh-28" value="&lt;font style=&quot;&quot;&gt;&lt;b style=&quot;border-color: var(--border-color); color: rgb(16, 115, 158);&quot;&gt;Release Plan Review&lt;/b&gt;&lt;br&gt;&lt;br&gt;&lt;div style=&quot;text-align: left;&quot;&gt;&lt;ol&gt;&lt;li&gt;&lt;span style=&quot;background-color: initial;&quot;&gt;&lt;font style=&quot;font-size: 11px;&quot;&gt;Checkpoint to review Current Release items proper allocation&lt;/font&gt;&lt;/span&gt;&lt;/li&gt;&lt;li&gt;&lt;span style=&quot;background-color: initial;&quot;&gt;&lt;font style=&quot;font-size: 11px;&quot;&gt;Based on Refinement results review/updated releases plan&lt;/font&gt;&lt;/span&gt;&lt;/li&gt;&lt;/ol&gt;&lt;/div&gt;&lt;/font&gt;" style="rounded=1;strokeColor=none;fillColor=#DDDDDD;align=center;arcSize=12;verticalAlign=top;whiteSpace=wrap;html=1;fontSize=12;" vertex="1" parent="1">
          <mxGeometry x="10" y="720" width="150" height="190" as="geometry" />
        </mxCell>
        <mxCell id="N5ACcrJUkBG9dbKgUQWh-29" value="&lt;font style=&quot;font-size: 10px&quot;&gt;&lt;b style=&quot;border-color: var(--border-color); color: rgb(174, 65, 50); font-size: 12px;&quot;&gt;Sprint Pre-Planning&lt;/b&gt;&lt;br&gt;&lt;/font&gt;" style="rounded=1;strokeColor=none;fillColor=#DDDDDD;align=center;arcSize=12;verticalAlign=top;whiteSpace=wrap;html=1;fontSize=12;" vertex="1" parent="1">
          <mxGeometry x="620" y="600" width="200" height="30" as="geometry" />
        </mxCell>
        <mxCell id="N5ACcrJUkBG9dbKgUQWh-31" value="Release Engineer Role Sprint Activities Calendar" style="text;strokeColor=none;fillColor=none;html=1;fontSize=24;fontStyle=1;verticalAlign=middle;align=center;" vertex="1" parent="1">
          <mxGeometry x="-10" y="280" width="840" height="40" as="geometry" />
        </mxCell>
      </root>
    </mxGraphModel>
  </diagram>
</mxfile>
